G04 EAGLE Gerber RS-274X export*
G75*
%MOMM*%
%FSLAX34Y34*%
%LPD*%
%INBottom Copper*%
%IPPOS*%
%AMOC8*
5,1,8,0,0,1.08239X$1,22.5*%
G01*
%ADD10P,1.034332X8X292.500000*%
%ADD11C,1.524000*%
%ADD12R,1.500000X1.300000*%
%ADD13C,0.254000*%

G36*
X35348Y5096D02*
X35348Y5096D01*
X35437Y5106D01*
X35458Y5116D01*
X35482Y5120D01*
X35558Y5166D01*
X35638Y5205D01*
X35654Y5222D01*
X35675Y5235D01*
X35731Y5304D01*
X35792Y5368D01*
X35801Y5390D01*
X35816Y5409D01*
X35845Y5493D01*
X35879Y5575D01*
X35880Y5599D01*
X35888Y5621D01*
X35885Y5710D01*
X35889Y5799D01*
X35882Y5822D01*
X35881Y5846D01*
X35848Y5928D01*
X35821Y6013D01*
X35805Y6034D01*
X35797Y6053D01*
X35763Y6091D01*
X35709Y6163D01*
X35215Y6657D01*
X32919Y12200D01*
X32919Y18200D01*
X35215Y23743D01*
X39457Y27985D01*
X45000Y30281D01*
X51000Y30281D01*
X56543Y27985D01*
X60785Y23743D01*
X63081Y18200D01*
X63081Y12200D01*
X60785Y6657D01*
X60291Y6163D01*
X60240Y6090D01*
X60184Y6021D01*
X60176Y5999D01*
X60163Y5979D01*
X60141Y5893D01*
X60112Y5809D01*
X60113Y5785D01*
X60107Y5762D01*
X60116Y5673D01*
X60119Y5584D01*
X60128Y5563D01*
X60130Y5539D01*
X60170Y5459D01*
X60203Y5377D01*
X60219Y5359D01*
X60229Y5338D01*
X60294Y5277D01*
X60354Y5211D01*
X60375Y5200D01*
X60393Y5184D01*
X60475Y5149D01*
X60554Y5108D01*
X60580Y5105D01*
X60599Y5096D01*
X60650Y5094D01*
X60739Y5081D01*
X121285Y5081D01*
X121350Y5092D01*
X121416Y5094D01*
X121459Y5112D01*
X121506Y5120D01*
X121563Y5154D01*
X121623Y5179D01*
X121658Y5210D01*
X121699Y5235D01*
X121741Y5286D01*
X121789Y5330D01*
X121811Y5372D01*
X121840Y5409D01*
X121861Y5471D01*
X121892Y5530D01*
X121900Y5584D01*
X121912Y5621D01*
X121911Y5661D01*
X121919Y5715D01*
X121919Y29530D01*
X121908Y29592D01*
X121907Y29655D01*
X121888Y29702D01*
X121880Y29751D01*
X121847Y29805D01*
X121824Y29864D01*
X121791Y29901D01*
X121765Y29944D01*
X121717Y29984D01*
X121674Y30031D01*
X121630Y30054D01*
X121591Y30085D01*
X121532Y30106D01*
X121476Y30135D01*
X121426Y30141D01*
X121379Y30157D01*
X121316Y30155D01*
X121253Y30163D01*
X121204Y30152D01*
X121154Y30151D01*
X121096Y30127D01*
X121035Y30113D01*
X120993Y30085D01*
X120947Y30066D01*
X120900Y30024D01*
X120847Y29989D01*
X120818Y29949D01*
X120781Y29915D01*
X120752Y29859D01*
X120715Y29808D01*
X120697Y29752D01*
X120678Y29715D01*
X120672Y29671D01*
X120659Y29629D01*
X120531Y28821D01*
X120036Y27300D01*
X119310Y25875D01*
X118370Y24581D01*
X117239Y23450D01*
X115945Y22510D01*
X114520Y21784D01*
X112999Y21289D01*
X111420Y21039D01*
X104269Y21039D01*
X104269Y30565D01*
X104258Y30630D01*
X104256Y30695D01*
X104238Y30739D01*
X104230Y30786D01*
X104196Y30842D01*
X104171Y30903D01*
X104139Y30938D01*
X104115Y30979D01*
X104064Y31020D01*
X104020Y31069D01*
X103978Y31091D01*
X103941Y31120D01*
X103879Y31141D01*
X103820Y31171D01*
X103766Y31180D01*
X103729Y31192D01*
X103689Y31191D01*
X103635Y31199D01*
X102999Y31199D01*
X102999Y31201D01*
X103635Y31201D01*
X103700Y31213D01*
X103765Y31214D01*
X103809Y31232D01*
X103856Y31241D01*
X103913Y31274D01*
X103973Y31299D01*
X104008Y31331D01*
X104049Y31355D01*
X104090Y31406D01*
X104139Y31450D01*
X104161Y31492D01*
X104190Y31529D01*
X104211Y31591D01*
X104242Y31650D01*
X104250Y31704D01*
X104262Y31741D01*
X104261Y31781D01*
X104269Y31835D01*
X104269Y41361D01*
X111420Y41361D01*
X112999Y41111D01*
X114520Y40616D01*
X115945Y39890D01*
X117239Y38950D01*
X118370Y37819D01*
X119310Y36525D01*
X120036Y35100D01*
X120531Y33579D01*
X120659Y32771D01*
X120679Y32711D01*
X120690Y32649D01*
X120716Y32606D01*
X120732Y32559D01*
X120772Y32510D01*
X120805Y32456D01*
X120843Y32425D01*
X120875Y32386D01*
X120930Y32354D01*
X120979Y32315D01*
X121026Y32299D01*
X121069Y32274D01*
X121132Y32263D01*
X121191Y32243D01*
X121241Y32244D01*
X121291Y32236D01*
X121353Y32247D01*
X121416Y32249D01*
X121462Y32268D01*
X121511Y32277D01*
X121565Y32310D01*
X121623Y32334D01*
X121660Y32367D01*
X121703Y32393D01*
X121743Y32443D01*
X121789Y32485D01*
X121812Y32530D01*
X121843Y32569D01*
X121863Y32629D01*
X121892Y32685D01*
X121900Y32743D01*
X121913Y32782D01*
X121913Y32826D01*
X121919Y32870D01*
X121919Y159385D01*
X121908Y159450D01*
X121906Y159516D01*
X121888Y159559D01*
X121880Y159606D01*
X121846Y159663D01*
X121821Y159723D01*
X121790Y159758D01*
X121765Y159799D01*
X121714Y159841D01*
X121670Y159889D01*
X121628Y159911D01*
X121591Y159940D01*
X121529Y159961D01*
X121470Y159992D01*
X121416Y160000D01*
X121379Y160012D01*
X121339Y160011D01*
X121285Y160019D01*
X60839Y160019D01*
X60752Y160004D01*
X60663Y159994D01*
X60642Y159984D01*
X60618Y159980D01*
X60542Y159934D01*
X60462Y159895D01*
X60446Y159878D01*
X60425Y159865D01*
X60369Y159796D01*
X60308Y159732D01*
X60299Y159710D01*
X60284Y159691D01*
X60255Y159607D01*
X60221Y159525D01*
X60220Y159501D01*
X60212Y159479D01*
X60215Y159390D01*
X60211Y159301D01*
X60218Y159278D01*
X60219Y159254D01*
X60252Y159172D01*
X60279Y159087D01*
X60295Y159066D01*
X60303Y159047D01*
X60337Y159009D01*
X60391Y158937D01*
X60785Y158543D01*
X63081Y153000D01*
X63081Y147000D01*
X60785Y141457D01*
X56543Y137215D01*
X51000Y134919D01*
X45000Y134919D01*
X39457Y137215D01*
X35215Y141457D01*
X32919Y147000D01*
X32919Y153000D01*
X35215Y158543D01*
X35609Y158937D01*
X35660Y159010D01*
X35716Y159079D01*
X35724Y159101D01*
X35737Y159121D01*
X35759Y159207D01*
X35788Y159291D01*
X35787Y159315D01*
X35793Y159338D01*
X35784Y159427D01*
X35781Y159516D01*
X35772Y159537D01*
X35770Y159561D01*
X35730Y159641D01*
X35697Y159723D01*
X35681Y159741D01*
X35671Y159762D01*
X35606Y159823D01*
X35546Y159889D01*
X35525Y159900D01*
X35507Y159916D01*
X35425Y159951D01*
X35346Y159992D01*
X35320Y159995D01*
X35301Y160004D01*
X35250Y160006D01*
X35161Y160019D01*
X5715Y160019D01*
X5650Y160008D01*
X5584Y160006D01*
X5541Y159988D01*
X5494Y159980D01*
X5437Y159946D01*
X5377Y159921D01*
X5342Y159890D01*
X5301Y159865D01*
X5259Y159814D01*
X5211Y159770D01*
X5189Y159728D01*
X5160Y159691D01*
X5139Y159629D01*
X5108Y159570D01*
X5100Y159516D01*
X5088Y159479D01*
X5089Y159439D01*
X5081Y159385D01*
X5081Y5715D01*
X5092Y5650D01*
X5094Y5584D01*
X5112Y5541D01*
X5120Y5494D01*
X5154Y5437D01*
X5179Y5377D01*
X5210Y5342D01*
X5235Y5301D01*
X5286Y5259D01*
X5330Y5211D01*
X5372Y5189D01*
X5409Y5160D01*
X5471Y5139D01*
X5530Y5108D01*
X5584Y5100D01*
X5621Y5088D01*
X5661Y5089D01*
X5715Y5081D01*
X35261Y5081D01*
X35348Y5096D01*
G37*
%LPC*%
G36*
X93510Y123401D02*
X93510Y123401D01*
X90056Y124832D01*
X87412Y127476D01*
X85981Y130930D01*
X85981Y134670D01*
X87412Y138124D01*
X90056Y140768D01*
X93510Y142199D01*
X112490Y142199D01*
X115944Y140768D01*
X118588Y138124D01*
X120019Y134670D01*
X120019Y130930D01*
X118588Y127476D01*
X115944Y124832D01*
X112490Y123401D01*
X93510Y123401D01*
G37*
%LPD*%
%LPC*%
G36*
X93510Y98001D02*
X93510Y98001D01*
X90056Y99432D01*
X87412Y102076D01*
X85981Y105530D01*
X85981Y109270D01*
X87412Y112724D01*
X90056Y115368D01*
X93510Y116799D01*
X112490Y116799D01*
X115944Y115368D01*
X118588Y112724D01*
X120019Y109270D01*
X120019Y105530D01*
X118588Y102076D01*
X115944Y99432D01*
X112490Y98001D01*
X93510Y98001D01*
G37*
%LPD*%
%LPC*%
G36*
X93510Y72601D02*
X93510Y72601D01*
X90056Y74032D01*
X87412Y76676D01*
X85981Y80130D01*
X85981Y83870D01*
X87412Y87324D01*
X90056Y89968D01*
X93510Y91399D01*
X112490Y91399D01*
X115944Y89968D01*
X118588Y87324D01*
X120019Y83870D01*
X120019Y80130D01*
X118588Y76676D01*
X115944Y74032D01*
X112490Y72601D01*
X93510Y72601D01*
G37*
%LPD*%
%LPC*%
G36*
X93510Y47201D02*
X93510Y47201D01*
X90056Y48632D01*
X87412Y51276D01*
X85981Y54730D01*
X85981Y58470D01*
X87412Y61924D01*
X90056Y64568D01*
X93510Y65999D01*
X112490Y65999D01*
X115944Y64568D01*
X118588Y61924D01*
X120019Y58470D01*
X120019Y54730D01*
X118588Y51276D01*
X115944Y48632D01*
X112490Y47201D01*
X93510Y47201D01*
G37*
%LPD*%
%LPC*%
G36*
X26763Y90221D02*
X26763Y90221D01*
X25721Y91263D01*
X25721Y105737D01*
X26763Y106779D01*
X31317Y106779D01*
X31382Y106790D01*
X31448Y106792D01*
X31491Y106810D01*
X31538Y106818D01*
X31595Y106852D01*
X31655Y106877D01*
X31690Y106908D01*
X31731Y106933D01*
X31773Y106984D01*
X31821Y107028D01*
X31843Y107070D01*
X31872Y107107D01*
X31893Y107169D01*
X31924Y107228D01*
X31932Y107282D01*
X31944Y107319D01*
X31943Y107359D01*
X31951Y107413D01*
X31951Y117313D01*
X31944Y117355D01*
X31946Y117398D01*
X31924Y117465D01*
X31912Y117534D01*
X31890Y117571D01*
X31877Y117611D01*
X31823Y117684D01*
X31797Y117727D01*
X31781Y117741D01*
X31765Y117762D01*
X28843Y120684D01*
X28843Y126116D01*
X32684Y129957D01*
X38116Y129957D01*
X41957Y126116D01*
X41957Y120684D01*
X38235Y116962D01*
X38210Y116927D01*
X38179Y116898D01*
X38147Y116836D01*
X38106Y116778D01*
X38096Y116737D01*
X38076Y116699D01*
X38063Y116609D01*
X38050Y116560D01*
X38053Y116540D01*
X38049Y116513D01*
X38049Y107413D01*
X38060Y107348D01*
X38062Y107282D01*
X38080Y107239D01*
X38088Y107192D01*
X38122Y107135D01*
X38147Y107075D01*
X38178Y107040D01*
X38203Y106999D01*
X38254Y106957D01*
X38298Y106909D01*
X38340Y106887D01*
X38377Y106858D01*
X38439Y106837D01*
X38498Y106806D01*
X38552Y106798D01*
X38589Y106786D01*
X38629Y106787D01*
X38683Y106779D01*
X43237Y106779D01*
X44279Y105737D01*
X44279Y91263D01*
X43237Y90221D01*
X26763Y90221D01*
G37*
%LPD*%
%LPC*%
G36*
X58184Y117043D02*
X58184Y117043D01*
X54343Y120884D01*
X54343Y126316D01*
X58184Y130157D01*
X63616Y130157D01*
X67457Y126316D01*
X67457Y120884D01*
X63616Y117043D01*
X58184Y117043D01*
G37*
%LPD*%
%LPC*%
G36*
X45184Y35443D02*
X45184Y35443D01*
X41343Y39284D01*
X41343Y44716D01*
X45184Y48557D01*
X50616Y48557D01*
X54457Y44716D01*
X54457Y39284D01*
X50616Y35443D01*
X45184Y35443D01*
G37*
%LPD*%
%LPC*%
G36*
X26184Y35443D02*
X26184Y35443D01*
X22343Y39284D01*
X22343Y44716D01*
X26184Y48557D01*
X31616Y48557D01*
X35457Y44716D01*
X35457Y39284D01*
X31616Y35443D01*
X26184Y35443D01*
G37*
%LPD*%
%LPC*%
G36*
X85294Y32469D02*
X85294Y32469D01*
X85469Y33579D01*
X85964Y35100D01*
X86690Y36525D01*
X87630Y37819D01*
X88761Y38950D01*
X90055Y39890D01*
X91480Y40616D01*
X93001Y41111D01*
X94580Y41361D01*
X101731Y41361D01*
X101731Y32469D01*
X85294Y32469D01*
G37*
%LPD*%
%LPC*%
G36*
X94580Y21039D02*
X94580Y21039D01*
X93001Y21289D01*
X91480Y21784D01*
X90055Y22510D01*
X88761Y23450D01*
X87630Y24581D01*
X86690Y25875D01*
X85964Y27300D01*
X85469Y28821D01*
X85294Y29931D01*
X101731Y29931D01*
X101731Y21039D01*
X94580Y21039D01*
G37*
%LPD*%
%LPC*%
G36*
X36269Y80769D02*
X36269Y80769D01*
X36269Y88541D01*
X42835Y88541D01*
X43481Y88368D01*
X44060Y88033D01*
X44533Y87560D01*
X44868Y86981D01*
X45041Y86335D01*
X45041Y80769D01*
X36269Y80769D01*
G37*
%LPD*%
%LPC*%
G36*
X24959Y80769D02*
X24959Y80769D01*
X24959Y86335D01*
X25132Y86981D01*
X25467Y87560D01*
X25940Y88033D01*
X26519Y88368D01*
X27165Y88541D01*
X33731Y88541D01*
X33731Y80769D01*
X24959Y80769D01*
G37*
%LPD*%
%LPC*%
G36*
X36269Y70459D02*
X36269Y70459D01*
X36269Y78231D01*
X45041Y78231D01*
X45041Y72665D01*
X44868Y72019D01*
X44533Y71440D01*
X44060Y70967D01*
X43481Y70632D01*
X42835Y70459D01*
X36269Y70459D01*
G37*
%LPD*%
%LPC*%
G36*
X27165Y70459D02*
X27165Y70459D01*
X26519Y70632D01*
X25940Y70967D01*
X25467Y71440D01*
X25132Y72019D01*
X24959Y72665D01*
X24959Y78231D01*
X33731Y78231D01*
X33731Y70459D01*
X27165Y70459D01*
G37*
%LPD*%
%LPC*%
G36*
X69169Y43269D02*
X69169Y43269D01*
X69169Y49319D01*
X70932Y49319D01*
X75219Y45032D01*
X75219Y43269D01*
X69169Y43269D01*
G37*
%LPD*%
%LPC*%
G36*
X60581Y43269D02*
X60581Y43269D01*
X60581Y45032D01*
X64868Y49319D01*
X66631Y49319D01*
X66631Y43269D01*
X60581Y43269D01*
G37*
%LPD*%
%LPC*%
G36*
X69169Y34681D02*
X69169Y34681D01*
X69169Y40731D01*
X75219Y40731D01*
X75219Y38968D01*
X70932Y34681D01*
X69169Y34681D01*
G37*
%LPD*%
%LPC*%
G36*
X64868Y34681D02*
X64868Y34681D01*
X60581Y38968D01*
X60581Y40731D01*
X66631Y40731D01*
X66631Y34681D01*
X64868Y34681D01*
G37*
%LPD*%
%LPC*%
G36*
X67899Y41999D02*
X67899Y41999D01*
X67899Y42001D01*
X67901Y42001D01*
X67901Y41999D01*
X67899Y41999D01*
G37*
%LPD*%
%LPC*%
G36*
X34999Y79499D02*
X34999Y79499D01*
X34999Y79501D01*
X35001Y79501D01*
X35001Y79499D01*
X34999Y79499D01*
G37*
%LPD*%
D10*
X35400Y123400D03*
X60900Y123600D03*
X28900Y42000D03*
X47900Y42000D03*
X67900Y42000D03*
D11*
X95380Y132800D02*
X110620Y132800D01*
X110620Y107400D02*
X95380Y107400D01*
X95380Y82000D02*
X110620Y82000D01*
X110620Y56600D02*
X95380Y56600D01*
X95380Y31200D02*
X110620Y31200D01*
D12*
X35000Y98500D03*
X35000Y79500D03*
D13*
X35000Y98500D02*
X35000Y123000D01*
X35400Y123400D01*
M02*
