G04 EAGLE Gerber RS-274X export*
G75*
%MOMM*%
%FSLAX34Y34*%
%LPD*%
%INSilkscreen Top*%
%IPPOS*%
%AMOC8*
5,1,8,0,0,1.08239X$1,22.5*%
G01*
%ADD10C,0.127000*%
%ADD11C,0.101600*%
%ADD12C,0.152400*%


D10*
X77400Y133000D02*
X20400Y133000D01*
X20400Y32000D01*
X77400Y32000D01*
X77400Y133000D01*
D11*
X12946Y50851D02*
X7754Y50851D01*
X7641Y50853D01*
X7528Y50859D01*
X7415Y50869D01*
X7302Y50883D01*
X7190Y50900D01*
X7079Y50922D01*
X6969Y50947D01*
X6859Y50977D01*
X6751Y51010D01*
X6644Y51047D01*
X6538Y51087D01*
X6434Y51132D01*
X6331Y51180D01*
X6230Y51231D01*
X6131Y51286D01*
X6034Y51344D01*
X5939Y51406D01*
X5846Y51471D01*
X5756Y51539D01*
X5668Y51610D01*
X5582Y51685D01*
X5499Y51762D01*
X5419Y51842D01*
X5342Y51925D01*
X5267Y52011D01*
X5196Y52099D01*
X5128Y52189D01*
X5063Y52282D01*
X5001Y52377D01*
X4943Y52474D01*
X4888Y52573D01*
X4837Y52674D01*
X4789Y52777D01*
X4744Y52881D01*
X4704Y52987D01*
X4667Y53094D01*
X4634Y53202D01*
X4604Y53312D01*
X4579Y53422D01*
X4557Y53533D01*
X4540Y53645D01*
X4526Y53758D01*
X4516Y53871D01*
X4510Y53984D01*
X4508Y54097D01*
X4510Y54210D01*
X4516Y54323D01*
X4526Y54436D01*
X4540Y54549D01*
X4557Y54661D01*
X4579Y54772D01*
X4604Y54882D01*
X4634Y54992D01*
X4667Y55100D01*
X4704Y55207D01*
X4744Y55313D01*
X4789Y55417D01*
X4837Y55520D01*
X4888Y55621D01*
X4943Y55720D01*
X5001Y55817D01*
X5063Y55912D01*
X5128Y56005D01*
X5196Y56095D01*
X5267Y56183D01*
X5342Y56269D01*
X5419Y56352D01*
X5499Y56432D01*
X5582Y56509D01*
X5668Y56584D01*
X5756Y56655D01*
X5846Y56723D01*
X5939Y56788D01*
X6034Y56850D01*
X6131Y56908D01*
X6230Y56963D01*
X6331Y57014D01*
X6434Y57062D01*
X6538Y57107D01*
X6644Y57147D01*
X6751Y57184D01*
X6859Y57217D01*
X6969Y57247D01*
X7079Y57272D01*
X7190Y57294D01*
X7302Y57311D01*
X7415Y57325D01*
X7528Y57335D01*
X7641Y57341D01*
X7754Y57343D01*
X7754Y57342D02*
X12946Y57342D01*
X12946Y57343D02*
X13059Y57341D01*
X13172Y57335D01*
X13285Y57325D01*
X13398Y57311D01*
X13510Y57294D01*
X13621Y57272D01*
X13731Y57247D01*
X13841Y57217D01*
X13949Y57184D01*
X14056Y57147D01*
X14162Y57107D01*
X14266Y57062D01*
X14369Y57014D01*
X14470Y56963D01*
X14569Y56908D01*
X14666Y56850D01*
X14761Y56788D01*
X14854Y56723D01*
X14944Y56655D01*
X15032Y56584D01*
X15118Y56509D01*
X15201Y56432D01*
X15281Y56352D01*
X15358Y56269D01*
X15433Y56183D01*
X15504Y56095D01*
X15572Y56005D01*
X15637Y55912D01*
X15699Y55817D01*
X15757Y55720D01*
X15812Y55621D01*
X15863Y55520D01*
X15911Y55417D01*
X15956Y55313D01*
X15996Y55207D01*
X16033Y55100D01*
X16066Y54992D01*
X16096Y54882D01*
X16121Y54772D01*
X16143Y54661D01*
X16160Y54549D01*
X16174Y54436D01*
X16184Y54323D01*
X16190Y54210D01*
X16192Y54097D01*
X16190Y53984D01*
X16184Y53871D01*
X16174Y53758D01*
X16160Y53645D01*
X16143Y53533D01*
X16121Y53422D01*
X16096Y53312D01*
X16066Y53202D01*
X16033Y53094D01*
X15996Y52987D01*
X15956Y52881D01*
X15911Y52777D01*
X15863Y52674D01*
X15812Y52573D01*
X15757Y52474D01*
X15699Y52377D01*
X15637Y52282D01*
X15572Y52189D01*
X15504Y52099D01*
X15433Y52011D01*
X15358Y51925D01*
X15281Y51842D01*
X15201Y51762D01*
X15118Y51685D01*
X15032Y51610D01*
X14944Y51539D01*
X14854Y51471D01*
X14761Y51406D01*
X14666Y51344D01*
X14569Y51286D01*
X14470Y51231D01*
X14369Y51180D01*
X14266Y51132D01*
X14162Y51087D01*
X14056Y51047D01*
X13949Y51010D01*
X13841Y50977D01*
X13731Y50947D01*
X13621Y50922D01*
X13510Y50900D01*
X13398Y50883D01*
X13285Y50869D01*
X13172Y50859D01*
X13059Y50853D01*
X12946Y50851D01*
X16192Y62831D02*
X4508Y62831D01*
X4508Y66077D01*
X4510Y66190D01*
X4516Y66303D01*
X4526Y66416D01*
X4540Y66529D01*
X4557Y66641D01*
X4579Y66752D01*
X4604Y66862D01*
X4634Y66972D01*
X4667Y67080D01*
X4704Y67187D01*
X4744Y67293D01*
X4789Y67397D01*
X4837Y67500D01*
X4888Y67601D01*
X4943Y67700D01*
X5001Y67797D01*
X5063Y67892D01*
X5128Y67985D01*
X5196Y68075D01*
X5267Y68163D01*
X5342Y68249D01*
X5419Y68332D01*
X5499Y68412D01*
X5582Y68489D01*
X5668Y68564D01*
X5756Y68635D01*
X5846Y68703D01*
X5939Y68768D01*
X6034Y68830D01*
X6131Y68888D01*
X6230Y68943D01*
X6331Y68994D01*
X6434Y69042D01*
X6538Y69087D01*
X6644Y69127D01*
X6751Y69164D01*
X6859Y69197D01*
X6969Y69227D01*
X7079Y69252D01*
X7190Y69274D01*
X7302Y69291D01*
X7415Y69305D01*
X7528Y69315D01*
X7641Y69321D01*
X7754Y69323D01*
X7867Y69321D01*
X7980Y69315D01*
X8093Y69305D01*
X8206Y69291D01*
X8318Y69274D01*
X8429Y69252D01*
X8539Y69227D01*
X8649Y69197D01*
X8757Y69164D01*
X8864Y69127D01*
X8970Y69087D01*
X9074Y69042D01*
X9177Y68994D01*
X9278Y68943D01*
X9377Y68888D01*
X9474Y68830D01*
X9569Y68768D01*
X9662Y68703D01*
X9752Y68635D01*
X9840Y68564D01*
X9926Y68489D01*
X10009Y68412D01*
X10089Y68332D01*
X10166Y68249D01*
X10241Y68163D01*
X10312Y68075D01*
X10380Y67985D01*
X10445Y67892D01*
X10507Y67797D01*
X10565Y67700D01*
X10620Y67601D01*
X10671Y67500D01*
X10719Y67397D01*
X10764Y67293D01*
X10804Y67187D01*
X10841Y67080D01*
X10874Y66972D01*
X10904Y66862D01*
X10929Y66752D01*
X10951Y66641D01*
X10968Y66529D01*
X10982Y66416D01*
X10992Y66303D01*
X10998Y66190D01*
X11000Y66077D01*
X10999Y66077D02*
X10999Y62831D01*
X9701Y74261D02*
X9701Y77507D01*
X9700Y77507D02*
X9702Y77620D01*
X9708Y77733D01*
X9718Y77846D01*
X9732Y77959D01*
X9749Y78071D01*
X9771Y78182D01*
X9796Y78292D01*
X9826Y78402D01*
X9859Y78510D01*
X9896Y78617D01*
X9936Y78723D01*
X9981Y78827D01*
X10029Y78930D01*
X10080Y79031D01*
X10135Y79130D01*
X10193Y79227D01*
X10255Y79322D01*
X10320Y79415D01*
X10388Y79505D01*
X10459Y79593D01*
X10534Y79679D01*
X10611Y79762D01*
X10691Y79842D01*
X10774Y79919D01*
X10860Y79994D01*
X10948Y80065D01*
X11038Y80133D01*
X11131Y80198D01*
X11226Y80260D01*
X11323Y80318D01*
X11422Y80373D01*
X11523Y80424D01*
X11626Y80472D01*
X11730Y80517D01*
X11836Y80557D01*
X11943Y80594D01*
X12051Y80627D01*
X12161Y80657D01*
X12271Y80682D01*
X12382Y80704D01*
X12494Y80721D01*
X12607Y80735D01*
X12720Y80745D01*
X12833Y80751D01*
X12946Y80753D01*
X13059Y80751D01*
X13172Y80745D01*
X13285Y80735D01*
X13398Y80721D01*
X13510Y80704D01*
X13621Y80682D01*
X13731Y80657D01*
X13841Y80627D01*
X13949Y80594D01*
X14056Y80557D01*
X14162Y80517D01*
X14266Y80472D01*
X14369Y80424D01*
X14470Y80373D01*
X14569Y80318D01*
X14666Y80260D01*
X14761Y80198D01*
X14854Y80133D01*
X14944Y80065D01*
X15032Y79994D01*
X15118Y79919D01*
X15201Y79842D01*
X15281Y79762D01*
X15358Y79679D01*
X15433Y79593D01*
X15504Y79505D01*
X15572Y79415D01*
X15637Y79322D01*
X15699Y79227D01*
X15757Y79130D01*
X15812Y79031D01*
X15863Y78930D01*
X15911Y78827D01*
X15956Y78723D01*
X15996Y78617D01*
X16033Y78510D01*
X16066Y78402D01*
X16096Y78292D01*
X16121Y78182D01*
X16143Y78071D01*
X16160Y77959D01*
X16174Y77846D01*
X16184Y77733D01*
X16190Y77620D01*
X16192Y77507D01*
X16192Y74261D01*
X4508Y74261D01*
X4508Y77507D01*
X4510Y77608D01*
X4516Y77708D01*
X4526Y77808D01*
X4539Y77908D01*
X4557Y78007D01*
X4578Y78106D01*
X4603Y78203D01*
X4632Y78300D01*
X4665Y78395D01*
X4701Y78489D01*
X4741Y78581D01*
X4784Y78672D01*
X4831Y78761D01*
X4881Y78848D01*
X4935Y78934D01*
X4992Y79017D01*
X5052Y79097D01*
X5115Y79176D01*
X5182Y79252D01*
X5251Y79325D01*
X5323Y79395D01*
X5397Y79463D01*
X5474Y79528D01*
X5554Y79589D01*
X5636Y79648D01*
X5720Y79703D01*
X5806Y79755D01*
X5894Y79804D01*
X5984Y79849D01*
X6076Y79891D01*
X6169Y79929D01*
X6264Y79963D01*
X6359Y79994D01*
X6456Y80021D01*
X6554Y80044D01*
X6653Y80064D01*
X6753Y80079D01*
X6853Y80091D01*
X6953Y80099D01*
X7054Y80103D01*
X7154Y80103D01*
X7255Y80099D01*
X7355Y80091D01*
X7455Y80079D01*
X7555Y80064D01*
X7654Y80044D01*
X7752Y80021D01*
X7849Y79994D01*
X7944Y79963D01*
X8039Y79929D01*
X8132Y79891D01*
X8224Y79849D01*
X8314Y79804D01*
X8402Y79755D01*
X8488Y79703D01*
X8572Y79648D01*
X8654Y79589D01*
X8734Y79528D01*
X8811Y79463D01*
X8885Y79395D01*
X8957Y79325D01*
X9026Y79252D01*
X9093Y79176D01*
X9156Y79097D01*
X9216Y79017D01*
X9273Y78934D01*
X9327Y78848D01*
X9377Y78761D01*
X9424Y78672D01*
X9467Y78581D01*
X9507Y78489D01*
X9543Y78395D01*
X9576Y78300D01*
X9605Y78203D01*
X9630Y78106D01*
X9651Y78007D01*
X9669Y77908D01*
X9682Y77808D01*
X9692Y77708D01*
X9698Y77608D01*
X9700Y77507D01*
X9701Y85141D02*
X9701Y89036D01*
X9703Y89135D01*
X9709Y89235D01*
X9718Y89334D01*
X9731Y89432D01*
X9748Y89530D01*
X9769Y89628D01*
X9794Y89724D01*
X9822Y89819D01*
X9854Y89913D01*
X9889Y90006D01*
X9928Y90098D01*
X9971Y90188D01*
X10016Y90276D01*
X10066Y90363D01*
X10118Y90447D01*
X10174Y90530D01*
X10232Y90610D01*
X10294Y90688D01*
X10359Y90763D01*
X10427Y90836D01*
X10497Y90906D01*
X10570Y90974D01*
X10645Y91039D01*
X10723Y91101D01*
X10803Y91159D01*
X10886Y91215D01*
X10970Y91267D01*
X11057Y91317D01*
X11145Y91362D01*
X11235Y91405D01*
X11327Y91444D01*
X11420Y91479D01*
X11514Y91511D01*
X11609Y91539D01*
X11705Y91564D01*
X11803Y91585D01*
X11901Y91602D01*
X11999Y91615D01*
X12098Y91624D01*
X12198Y91630D01*
X12297Y91632D01*
X12946Y91632D01*
X12946Y91633D02*
X13059Y91631D01*
X13172Y91625D01*
X13285Y91615D01*
X13398Y91601D01*
X13510Y91584D01*
X13621Y91562D01*
X13731Y91537D01*
X13841Y91507D01*
X13949Y91474D01*
X14056Y91437D01*
X14162Y91397D01*
X14266Y91352D01*
X14369Y91304D01*
X14470Y91253D01*
X14569Y91198D01*
X14666Y91140D01*
X14761Y91078D01*
X14854Y91013D01*
X14944Y90945D01*
X15032Y90874D01*
X15118Y90799D01*
X15201Y90722D01*
X15281Y90642D01*
X15358Y90559D01*
X15433Y90473D01*
X15504Y90385D01*
X15572Y90295D01*
X15637Y90202D01*
X15699Y90107D01*
X15757Y90010D01*
X15812Y89911D01*
X15863Y89810D01*
X15911Y89707D01*
X15956Y89603D01*
X15996Y89497D01*
X16033Y89390D01*
X16066Y89282D01*
X16096Y89172D01*
X16121Y89062D01*
X16143Y88951D01*
X16160Y88839D01*
X16174Y88726D01*
X16184Y88613D01*
X16190Y88500D01*
X16192Y88387D01*
X16190Y88274D01*
X16184Y88161D01*
X16174Y88048D01*
X16160Y87935D01*
X16143Y87823D01*
X16121Y87712D01*
X16096Y87602D01*
X16066Y87492D01*
X16033Y87384D01*
X15996Y87277D01*
X15956Y87171D01*
X15911Y87067D01*
X15863Y86964D01*
X15812Y86863D01*
X15757Y86764D01*
X15699Y86667D01*
X15637Y86572D01*
X15572Y86479D01*
X15504Y86389D01*
X15433Y86301D01*
X15358Y86215D01*
X15281Y86132D01*
X15201Y86052D01*
X15118Y85975D01*
X15032Y85900D01*
X14944Y85829D01*
X14854Y85761D01*
X14761Y85696D01*
X14666Y85634D01*
X14569Y85576D01*
X14470Y85521D01*
X14369Y85470D01*
X14266Y85422D01*
X14162Y85377D01*
X14056Y85337D01*
X13949Y85300D01*
X13841Y85267D01*
X13731Y85237D01*
X13621Y85212D01*
X13510Y85190D01*
X13398Y85173D01*
X13285Y85159D01*
X13172Y85149D01*
X13059Y85143D01*
X12946Y85141D01*
X9701Y85141D01*
X9558Y85143D01*
X9415Y85149D01*
X9272Y85159D01*
X9130Y85173D01*
X8988Y85190D01*
X8846Y85212D01*
X8705Y85237D01*
X8565Y85267D01*
X8426Y85300D01*
X8288Y85337D01*
X8151Y85378D01*
X8015Y85422D01*
X7880Y85471D01*
X7747Y85523D01*
X7615Y85578D01*
X7485Y85638D01*
X7356Y85701D01*
X7229Y85767D01*
X7105Y85837D01*
X6982Y85910D01*
X6861Y85987D01*
X6742Y86066D01*
X6626Y86150D01*
X6511Y86236D01*
X6400Y86325D01*
X6291Y86418D01*
X6184Y86513D01*
X6080Y86612D01*
X5979Y86713D01*
X5880Y86817D01*
X5785Y86923D01*
X5692Y87033D01*
X5603Y87144D01*
X5517Y87258D01*
X5434Y87375D01*
X5354Y87494D01*
X5277Y87615D01*
X5204Y87737D01*
X5134Y87862D01*
X5068Y87989D01*
X5005Y88118D01*
X4945Y88248D01*
X4890Y88380D01*
X4838Y88513D01*
X4789Y88648D01*
X4745Y88784D01*
X4704Y88921D01*
X4667Y89059D01*
X4634Y89198D01*
X4604Y89338D01*
X4579Y89479D01*
X4557Y89621D01*
X4540Y89763D01*
X4526Y89905D01*
X4516Y90048D01*
X4510Y90191D01*
X4508Y90334D01*
X4508Y100141D02*
X4510Y100248D01*
X4516Y100354D01*
X4526Y100460D01*
X4539Y100566D01*
X4557Y100672D01*
X4578Y100776D01*
X4603Y100880D01*
X4632Y100983D01*
X4664Y101084D01*
X4701Y101184D01*
X4741Y101283D01*
X4784Y101381D01*
X4831Y101477D01*
X4882Y101571D01*
X4936Y101663D01*
X4993Y101753D01*
X5053Y101841D01*
X5117Y101926D01*
X5184Y102009D01*
X5254Y102090D01*
X5326Y102168D01*
X5402Y102244D01*
X5480Y102316D01*
X5561Y102386D01*
X5644Y102453D01*
X5729Y102517D01*
X5817Y102577D01*
X5907Y102634D01*
X5999Y102688D01*
X6093Y102739D01*
X6189Y102786D01*
X6287Y102829D01*
X6386Y102869D01*
X6486Y102906D01*
X6587Y102938D01*
X6690Y102967D01*
X6794Y102992D01*
X6898Y103013D01*
X7004Y103031D01*
X7110Y103044D01*
X7216Y103054D01*
X7322Y103060D01*
X7429Y103062D01*
X4508Y100141D02*
X4510Y100020D01*
X4516Y99899D01*
X4526Y99779D01*
X4539Y99658D01*
X4557Y99539D01*
X4578Y99419D01*
X4603Y99301D01*
X4632Y99184D01*
X4665Y99067D01*
X4701Y98952D01*
X4742Y98838D01*
X4785Y98725D01*
X4833Y98613D01*
X4884Y98504D01*
X4939Y98396D01*
X4997Y98289D01*
X5058Y98185D01*
X5123Y98083D01*
X5191Y97983D01*
X5262Y97885D01*
X5336Y97789D01*
X5413Y97696D01*
X5494Y97606D01*
X5577Y97518D01*
X5663Y97433D01*
X5752Y97350D01*
X5843Y97271D01*
X5937Y97194D01*
X6033Y97121D01*
X6131Y97051D01*
X6232Y96984D01*
X6335Y96920D01*
X6440Y96860D01*
X6547Y96802D01*
X6655Y96749D01*
X6765Y96699D01*
X6877Y96653D01*
X6990Y96610D01*
X7105Y96571D01*
X9701Y102088D02*
X9623Y102167D01*
X9543Y102243D01*
X9460Y102316D01*
X9374Y102386D01*
X9287Y102453D01*
X9196Y102517D01*
X9104Y102577D01*
X9010Y102635D01*
X8913Y102689D01*
X8815Y102739D01*
X8715Y102786D01*
X8614Y102830D01*
X8511Y102870D01*
X8406Y102906D01*
X8301Y102938D01*
X8194Y102967D01*
X8087Y102992D01*
X7978Y103014D01*
X7869Y103031D01*
X7760Y103045D01*
X7650Y103054D01*
X7539Y103060D01*
X7429Y103062D01*
X9701Y102088D02*
X16192Y96571D01*
X16192Y103062D01*
X16192Y108001D02*
X16192Y111896D01*
X16190Y111995D01*
X16184Y112095D01*
X16175Y112194D01*
X16162Y112292D01*
X16145Y112390D01*
X16124Y112488D01*
X16099Y112584D01*
X16071Y112679D01*
X16039Y112773D01*
X16004Y112866D01*
X15965Y112958D01*
X15922Y113048D01*
X15877Y113136D01*
X15827Y113223D01*
X15775Y113307D01*
X15719Y113390D01*
X15661Y113470D01*
X15599Y113548D01*
X15534Y113623D01*
X15466Y113696D01*
X15396Y113766D01*
X15323Y113834D01*
X15248Y113899D01*
X15170Y113961D01*
X15090Y114019D01*
X15007Y114075D01*
X14923Y114127D01*
X14836Y114177D01*
X14748Y114222D01*
X14658Y114265D01*
X14566Y114304D01*
X14473Y114339D01*
X14379Y114371D01*
X14284Y114399D01*
X14188Y114424D01*
X14090Y114445D01*
X13992Y114462D01*
X13894Y114475D01*
X13795Y114484D01*
X13695Y114490D01*
X13596Y114492D01*
X12297Y114492D01*
X12198Y114490D01*
X12098Y114484D01*
X11999Y114475D01*
X11901Y114462D01*
X11803Y114445D01*
X11705Y114424D01*
X11609Y114399D01*
X11514Y114371D01*
X11420Y114339D01*
X11327Y114304D01*
X11235Y114265D01*
X11145Y114222D01*
X11057Y114177D01*
X10970Y114127D01*
X10886Y114075D01*
X10803Y114019D01*
X10723Y113961D01*
X10645Y113899D01*
X10570Y113834D01*
X10497Y113766D01*
X10427Y113696D01*
X10359Y113623D01*
X10294Y113548D01*
X10232Y113470D01*
X10174Y113390D01*
X10118Y113307D01*
X10066Y113223D01*
X10016Y113136D01*
X9971Y113048D01*
X9928Y112958D01*
X9889Y112866D01*
X9854Y112773D01*
X9822Y112679D01*
X9794Y112584D01*
X9769Y112488D01*
X9748Y112390D01*
X9731Y112292D01*
X9718Y112194D01*
X9709Y112095D01*
X9703Y111995D01*
X9701Y111896D01*
X9701Y108001D01*
X4508Y108001D01*
X4508Y114492D01*
D12*
X115700Y62950D02*
X115700Y50250D01*
X109350Y43900D01*
X96650Y43900D01*
X90300Y50250D01*
X115700Y88350D02*
X109350Y94700D01*
X115700Y88350D02*
X115700Y75650D01*
X109350Y69300D01*
X96650Y69300D01*
X90300Y75650D01*
X90300Y88350D01*
X96650Y94700D01*
X109350Y69300D02*
X115700Y62950D01*
X96650Y69300D02*
X90300Y62950D01*
X90300Y50250D01*
X115700Y126450D02*
X115700Y139150D01*
X115700Y126450D02*
X109350Y120100D01*
X96650Y120100D01*
X90300Y126450D01*
X109350Y120100D02*
X115700Y113750D01*
X115700Y101050D01*
X109350Y94700D01*
X96650Y94700D01*
X90300Y101050D01*
X90300Y113750D01*
X96650Y120100D01*
X96650Y145500D02*
X109350Y145500D01*
X115700Y139150D01*
X96650Y145500D02*
X90300Y139150D01*
X90300Y126450D01*
X115700Y37550D02*
X115700Y24850D01*
X109350Y18500D01*
X96650Y18500D01*
X90300Y24850D01*
X109350Y43900D02*
X115700Y37550D01*
X96650Y43900D02*
X90300Y37550D01*
X90300Y24850D01*
M02*
